<?xml version="1.0" ?><svg viewBox="0 0 60 60" xmlns="http://www.w3.org/2000/svg"><defs><style>.a{fill:#f94867;}.b{fill:#f0f0f0;stroke:#fff;stroke-miterlimit:10;stroke-width:0.5px;}.c{fill:#f2562f;}.d{fill:#fdd303;}.e{fill:#1891ff;}.f{fill:#6b6fde;}.g{fill:#cbcbcb;}.h{fill:#aeaeae;}.i{fill:#4f5564;}.j{fill:#fff;}</style></defs><title/><circle class="a" cx="30" cy="30" r="30"/><path class="b" d="M50.65667,18.72257A17.515,17.515,0,0,1,44.25123,42.628l-16.02147,9.25-.01-.01734c-.1422.09366-.27579.18235-.423.26734a6.5,6.5,0,0,1-6.5-11.25833c.14721-.085.29081-.15634.443-.23272l-.01-.01728,1.73205-1a2,2,0,1,0-2-3.4641l-3.89711,2.25A8.50566,8.50566,0,0,1,5.95348,35.29438l-.5-.866A8.50566,8.50566,0,0,1,8.56469,22.81713l18.18653-10.5A17.50638,17.50638,0,0,1,50.65667,18.72257Z"/><circle class="c" cx="15.09578" cy="27.12931" r="5" transform="translate(-11.54221 11.18253) rotate(-30.00001)"/><circle class="c" cx="20.05988" cy="27.72738" r="2" transform="translate(-11.17618 13.74471) rotate(-30.00001)"/><circle class="c" cx="13.58264" cy="35.50848" r="1.5" transform="translate(-15.93451 11.54856) rotate(-30.00001)"/><circle class="c" cx="22.55988" cy="32.05751" r="1" transform="translate(-13.00631 15.57484) rotate(-30.00001)"/><circle class="d" cx="27.72013" cy="20.99533" r="5" transform="translate(-6.78387 16.67292) rotate(-30.00001)"/><circle class="d" cx="31.18423" cy="18.99533" r="2" transform="translate(-5.31977 18.13702) rotate(-30.00001)"/><circle class="e" cx="41.79545" cy="20.37449" r="5.5" transform="translate(-4.58772 23.6274) rotate(-30.00001)"/><circle class="e" cx="37.96532" cy="23.74052" r="3.5" transform="translate(-6.78387 22.1633) rotate(-30.00001)"/><circle class="e" cx="45.84449" cy="24.38763" r="3" transform="translate(-6.05182 26.18958) rotate(-30.00001)"/><circle class="f" cx="36.72014" cy="36.58379" r="5" transform="translate(-13.37233 23.26138) rotate(-30.00001)"/><circle class="f" cx="30.89001" cy="36.48571" r="2" transform="translate(-14.10438 20.33317) rotate(-30.00001)"/><circle class="f" cx="30.80507" cy="31.3386" r="1.5" transform="translate(-11.5422 19.60112) rotate(-30.00001)"/><circle class="f" cx="41.08616" cy="42.14596" r="1" transform="translate(-15.56848 26.18958) rotate(-30.00001)"/><circle class="g" cx="24.54674" cy="46.49885" r="4.5" transform="translate(-19.96079 18.50305) rotate(-30.00001)"/><circle class="e" cx="24.54674" cy="46.49885" r="3.5" transform="translate(-19.96079 18.50305) rotate(-30.00001)"/><circle class="d" cx="37.19737" cy="18.41039" r="1.5" transform="translate(-4.22169 21.06522) rotate(-30.00001)"/><path class="h" d="M52.09,35.14a8.87937,8.87937,0,0,1-.776,3.65H46.21363a1.9211,1.9211,0,0,1-.33088-.15A3.25081,3.25081,0,0,1,44,35.7a3.11406,3.11406,0,0,1,.23964-1.21,3.30418,3.30418,0,0,1,.6504-1.02,3.19983,3.19983,0,0,1,.39934-.36c.194-.16.42218-.27.62756-.42a3.52641,3.52641,0,0,0,.57052-.48c.01142-.00995.02284-.03.03426-.04a4.03353,4.03353,0,0,0,.73021-.98,4.15722,4.15722,0,0,0,.42218-1.15,3.92625,3.92625,0,0,0,.0913-.89A4.31381,4.31381,0,0,0,47.19491,27,9.33734,9.33734,0,0,1,52.09,35.14Z"/><path class="g" d="M50.84626,35.35a7.49272,7.49272,0,0,1-.76448,3.29h-4.199A3.25081,3.25081,0,0,1,44,35.7a3.11406,3.11406,0,0,1,.23964-1.21,3.30418,3.30418,0,0,1,.6504-1.02,3.19983,3.19983,0,0,1,.39934-.36c.194-.16.42218-.27.62756-.42a3.52641,3.52641,0,0,0,.57052-.48c.01142-.00995.02284-.03.03426-.04a4.03353,4.03353,0,0,0,.73021-.98,4.15722,4.15722,0,0,0,.42218-1.15,3.92625,3.92625,0,0,0,.0913-.89A7.99768,7.99768,0,0,1,50.84626,35.35Z"/><path class="i" d="M45,40.0625h7a0,0,0,0,1,0,0V56.5A3.5,3.5,0,0,1,48.5,60h0A3.5,3.5,0,0,1,45,56.5V40.0625A0,0,0,0,1,45,40.0625Z"/><path class="j" d="M52,40.64063H45a1,1,0,0,1,0-2h7a1,1,0,0,1,0,2Z"/></svg>